<mxfile host="app.diagrams.net" modified="2023-06-16T07:39:14.569Z" agent="Mozilla/5.0 (Windows NT 10.0; Win64; x64) AppleWebKit/537.36 (KHTML, like Gecko) Chrome/114.0.0.0 Safari/537.36 Edg/114.0.1823.43" version="21.3.7" etag="jZTOrlWgKouhUbcF38rV" type="github">
  <diagram name="第 1 页" id="aifm3Frk06SLdVjeGglA">
    <mxGraphModel>
      <root>
        <mxCell id="0" />
        <mxCell id="1" parent="0" />
      </root>
    </mxGraphModel>
  </diagram>
</mxfile>
